<svg width="24" height="24" viewBox="0 0 24 24" fill="none" xmlns="http://www.w3.org/2000/svg">
    <!-- 下载图标 -->
    <path d="M12 2C12.5523 2 13 2.44772 13 3V13.5858L16.2929 10.2929C16.6834 9.90237 17.3166 9.90237 17.7071 10.2929C18.0976 10.6834 18.0976 11.3166 17.7071 11.7071L12.7071 16.7071C12.3166 17.0976 11.6834 17.0976 11.2929 16.7071L6.29289 11.7071C5.90237 11.3166 5.90237 10.6834 6.29289 10.2929C6.68342 9.90237 7.31658 9.90237 7.70711 10.2929L11 13.5858V3C11 2.44772 11.4477 2 12 2Z" fill="currentColor"/>
    <path d="M3 18C3 17.4477 3.44772 17 4 17H20C20.5523 17 21 17.4477 21 18V19C21 19.5523 20.5523 20 20 20H4C3.44772 20 3 19.5523 3 19V18Z" fill="currentColor"/>
</svg> 